<?xml version="1.0" encoding="utf-8"?>
<!-- Generator: Adobe Illustrator 18.0.0, SVG Export Plug-In . SVG Version: 6.00 Build 0)  -->
<!DOCTYPE svg PUBLIC "-//W3C//DTD SVG 1.1//EN" "http://www.w3.org/Graphics/SVG/1.1/DTD/svg11.dtd">
<svg version="1.1" id="Layer_1" xmlns="http://www.w3.org/2000/svg" xmlns:xlink="http://www.w3.org/1999/xlink" x="0px" y="0px"
	 viewBox="0 0 3010.4 632.8" enable-background="new 0 0 3010.4 632.8" xml:space="preserve">
<g>
	<path fill="#D4D4D4" d="M1288.8,169.5c-23.7,0-46.6,7.4-68.9,23c-22.8,14.9-38.4,33.8-46.8,55.4c-8.2,20.9-7.2,39.2,3.7,54.7
		c6.7,9.5,21.4,20.9,43.5,34.4h0c18.1,14.2,29.7,24.3,34.4,31.1c9,12.8,10.1,29,2.9,47.3c-7.1,18.2-20.9,34.4-40,47.3
		c-19.1,12.8-39.5,19.6-59.5,19.6c-20,0-34.3-6.8-43.4-19.6c-9.8-12.8-10.1-29-2.4-48.6l-35.5,7.4c-9,23-6.6,43.2,6.7,62.1
		c12.6,18.9,34,28.4,62.9,28.4c29.6,0,57.7-9.5,85.8-28.4c28.1-18.9,46.7-41.9,57-68.2c10.3-26.3,9.7-49.3-3.6-68.2
		c-8.8-11.5-25-25-50-40.5c-14.7-11.5-24.9-19.6-28.7-25c-6.7-9.5-7.3-20.9-2.3-33.8c5.3-13.5,15-25,29-34.4
		c14.1-9.5,28.5-14.2,43.3-14.2c14.1,0,24.3,4,30.5,12.8c5.7,8.1,6.6,20.9,2.5,37.1l32.1-10.1l0.5-1.4c6.9-17.6,5.6-33.1-3.7-47.3
		C1329.1,176.2,1311.8,169.5,1288.8,169.5z"/>
	<polygon fill="#D4D4D4" points="1576.3,209.3 1588,179.6 1516.2,179.6 1570.2,41.8 1537.6,41.8 1483.7,179.6 1411.2,179.6 
		1399.5,209.3 1472,209.3 1356.7,503.7 1389.2,503.7 1504.6,209.3 	"/>
	<path fill="#D4D4D4" d="M1775,172.2c-30.9,1.4-65,14.9-104.2,41.2c-12.1,8.1-23.6,16.9-33.7,25.7l23.3-59.4h-32.5l-127,324.1h32.5
		l65.6-167.5c16.8-39.2,46.1-72.3,87.5-100.6c29.9-19.6,54.8-30.4,75.8-31.1L1775,172.2z"/>
	<path fill="#D4D4D4" d="M2107.6,209.3c-0.7-2-2.4-3.4-3.8-5.4c-3.8-5.4-7.9-10.1-11.2-14.9c-25.5-25.7-61.1-38.5-108.5-38.5
		c-54.7,0-108.2,17.6-160.7,53.3c-53,35.1-88.9,77.7-108.4,127.6c-19.6,50-17.3,93.2,8.2,128.3c24.7,35.1,64.2,53.3,118.9,53.3
		c54.7,0,109.2-18.2,161.4-53.3c11-7.4,20.6-14.9,30.4-23l-30.5-10.8c-4.5,4.1-10.3,7.4-15.6,11.5c-43.2,29-88.2,43.9-133.3,43.9
		c-42.2,0-73.4-12.8-93.7-38.5l313.3-210.7L2107.6,209.3z M1747.1,421.4c-11.4-25.7-10.6-56,2.6-89.8
		c16.1-41.2,46.2-76.3,89.4-105.3c43.4-29.7,87.5-43.9,132.6-43.9c37.7,0,66.6,9.5,86.7,29.7L1747.1,421.4z"/>
	<path fill="#D4D4D4" d="M2524.9,179.6l-18,45.9c-3-7.4-7.5-14.9-12.2-21.6c-24.4-35.8-64.9-53.3-119.6-53.3
		c-54.7,0-108.2,17.6-160.7,53.3c-53,35.1-88.9,77.7-108.7,128.3c-19.3,49.3-17,92.5,8.4,127.6c24.7,35.1,64.2,53.3,118.9,53.3
		c54.7,0,109.2-18.2,161.4-53.3c10-6.8,20.4-14.2,29.4-22.3l-25.9,66.2h32.5l127-324.1H2524.9z M2245.4,481.5
		c-45.1,0-77.8-14.9-98.9-43.9c-20.4-29-22.2-64.2-6.1-105.3c16.4-41.9,45.7-77,88.9-106c44.2-29.7,88.2-43.9,133.3-43.9
		c45.1,0,78.8,14.2,98.9,43.9c15.2,21.6,20.7,47.3,15.2,76.3l-23,58.7c-17.3,29-42.6,54-75,76.3
		C2335.6,466.6,2290.5,481.5,2245.4,481.5z"/>
	<path fill="#D4D4D4" d="M2973,189.1c-13.3-18.9-34-28.4-63.6-28.4c-28.8,0-57.7,9.5-85.1,28.4c-7.8,4.7-15.3,10.8-21.1,16.2
		c-2.1-6.1-5.1-11.5-8.4-16.2c-13.3-18.9-34-28.4-63.6-28.4c-28.1,0-55.2,8.8-83.1,27l3.2-8.1h-32.5l-127,324.1h32.5l98.9-252.6
		c8.6-16.2,20.8-30.4,37.6-41.2c19.1-12.8,38.7-19.6,58.7-19.6c20,0,35.1,6.8,44.1,19.6c8.6,12.2,10.4,26.3,4.3,43.9L2670,503.7
		h32.5l96-245.1c7.7-19.6,20.7-35.8,40.5-48.6c19.1-12.8,38.7-19.6,58.7-19.6c20,0,34.3,6.8,44.1,19.6c8.6,12.2,9.7,26.3,4.3,43.9
		h-0.7l-97.9,249.9h32.5l97.9-249.9C2987.3,228.2,2985.4,206.6,2973,189.1z"/>
	<path fill="#D4D4D4" d="M328,172.8H185.1l6.7-25.2c2.7-10,7.1-19.5,13.1-28.1c5.9-8.5,12.9-16,20.8-22.1
		c7.7-6.2,16.5-11.2,26.1-14.7c9.4-3.6,19.4-5.4,29.7-5.4h59.3L360,5.6h-55.4c-19.8,0-39.8,3.8-59.5,11.4
		c-19.9,7.8-38.5,18.3-55.1,31.3c-16.7,13-31.5,28.6-44,46.4c-12.3,17.7-21.3,36.7-26.6,56.6l-5.8,21.5h-42l-19.2,71.7h42l-67.8,253
		h71.5l67.8-253h71.7L328,172.8z"/>
	<path fill="#D4D4D4" d="M483.7,172.8l-48.8,182.1c-2.6,9.7-7,19.3-13.1,28.5c-6.1,9.1-13.3,17.3-21.4,24.4
		c-8.2,7.1-17.2,13-26.9,17.5c-9.9,4.5-20,6.8-29.9,6.8c-9.9,0-19-1.7-27.1-5c-8.5-3.6-15.3-9-20.3-16c-5-7-8.1-15.7-9.3-25.8
		c-1.2-9.8,0-21.3,3.5-34.2l41.8-156l-91.4,75.5l-22.6,84.3c-6.3,23.4-8.1,44.5-5.5,62.8c2.5,18.3,8.5,34,17.8,46.4
		c9.4,12.6,21.9,22.4,37,29.2c15.6,7,33.4,10.5,53,10.5c8.9,0,18.6-1.9,28.8-5.6c9.8-3.6,20.3-7.5,32.1-12l21.2-8l-12.6,18.8
		c-5.5,8.2-12,15.9-19.1,22.8c-7.3,7.1-15,13.1-23.5,18.3c-8.3,5.1-17.2,9.2-26.4,12.1c-9.1,3-18.5,4.5-27.6,4.5l-15.6-0.6
		l-19.5,72.6l8.1,0.5c22.7,0,45.6-4.4,68-13.1c22.7-8.9,43.9-21,63-36c19.1-14.9,36.1-32.8,50.4-53.2c14.1-20.2,24.5-42,30.9-65
		l77-287.2H483.7z"/>
	<path fill="#D4D4D4" d="M710.1,245.1h7.6c18.9-21.4,48.8-55.6,82.3-71.7h-66.9c-18,0-36.7,3.3-55.5,9.9
		c-18.8,6.6-36.8,16.2-53.4,28.3l-7.3,5.3l-19.5-44.1H587l-87,324.7h71.5L620.1,316c2.7-9.9,7-19.3,12.9-27.8
		c6.1-8.7,13.2-16.3,21-22.5c8.3-6.5,17-11.4,26.7-15c8.5-3.2,17-5,25.6-5.4C707.5,245.1,708.8,245.1,710.1,245.1z"/>
	<path fill="#D4D4D4" d="M1016.9,200.3c-7.7-8.7-16.5-16-26.1-21.8c-9.8-6-20.8-10.6-32.7-13.8c-12.1-3.2-25-4.8-38.3-4.8
		c-22.9,0-45.8,4.2-68.2,12.5c-3.7,1.4-7.4,2.9-11.1,4.4c-5.8,2.5-11.6,5.3-17.2,8.3c-12.1,6.4-23.6,14-34.6,22.6
		c-13.7,10.7-26.3,23.3-37.7,37.4c-3.8,4.6-7.4,9.5-10.9,14.5c-0.7,1.1-1.5,2.1-2.2,3.2c-14.5,21.4-25.3,45.3-32.3,71.2
		c-6.7,25.1-8.6,48.4-5.5,69.1c3.1,20.9,9.9,38.4,20.7,53.3c10.8,14.8,25,26.5,42.4,34.8c17.5,8.4,37.9,12.6,60.6,12.6
		c13.3,0,27.1-1.6,41.1-4.8c13.4-3.1,27.1-7.7,40.7-13.9c13.5-6.2,26.7-13.8,39-22.5c10.8-7.7,21.1-16.2,30.5-25.4l-32.9-43.9
		c-27.4,23.7-78.7,48.8-117.1,35.2l-11.4-4l219.5-199.9C1028.8,215.8,1023.4,207.6,1016.9,200.3z M909.2,233.5
		c4.8,0.6,9.2,1.7,13.1,3.3l10,4.2l-153,149.7l-3.3-11.7c-1.1-3.6-1.6-7.7-1.7-11.9c0-4,0.1-8.1,0.5-12.6c0.4-4.8,1.2-9.4,1.9-12.9
		c0.9-4.8,1.6-8.3,2.5-11.4c3.9-14.7,9.9-28.2,17.9-40.3c7.9-11.9,17.1-22.2,27.4-30.6c10.4-8.5,21.9-15.1,34.2-19.7
		c12.4-4.6,25.1-6.9,37.7-6.9C900.8,232.8,905.2,233,909.2,233.5z"/>
</g>
</svg>
