<?xml version="1.0" encoding="UTF-8" standalone="no"?>
<svg
   xmlns:dc="http://purl.org/dc/elements/1.1/"
   xmlns:cc="http://creativecommons.org/ns#"
   xmlns:rdf="http://www.w3.org/1999/02/22-rdf-syntax-ns#"
   xmlns:svg="http://www.w3.org/2000/svg"
   xmlns="http://www.w3.org/2000/svg"
   viewBox="0 0 1440 1440"
   height="1440"
   width="1440"
   xml:space="preserve"
   id="svg2"
   version="1.1"><metadata
     id="metadata8"><rdf:RDF><cc:Work
         rdf:about=""><dc:format>image/svg+xml</dc:format><dc:type
           rdf:resource="http://purl.org/dc/dcmitype/StillImage" /></cc:Work></rdf:RDF></metadata><defs
     id="defs6"><clipPath
       id="clipPath18"
       clipPathUnits="userSpaceOnUse"><path
         id="path16"
         d="M 0,1080 H 1080 V 0 H 0 Z" /></clipPath></defs><g
     transform="matrix(1.3333333,0,0,-1.3333333,0,1440)"
     id="g10"><g
       id="g12"><g
         clip-path="url(#clipPath18)"
         id="g14"><g
           transform="translate(708.5422,698.3494)"
           id="g20"><path
             id="path22"
             style="fill:#ffba6d;fill-opacity:1;fill-rule:nonzero;stroke:none"
             d="m 0,0 c 6.361,25.135 4.889,48.169 4.125,55.847 -38.719,53.437 -101.633,88.196 -172.667,88.196 -18.75,0 -36.932,-2.425 -54.255,-6.972 8.882,-1.839 34.164,-8.14 57.562,-24.059 C -90.531,111.681 -26.806,65.365 0,0" /></g><g
           transform="translate(540,447.2151)"
           id="g24"><path
             id="path26"
             style="fill:#ffdd75;fill-opacity:1;fill-rule:nonzero;stroke:none"
             d="m 0,0 c -36.684,0 -70.833,10.85 -99.417,29.513 11.076,-26.748 28.682,-45.765 32.633,-49.832 21.007,-6.928 43.457,-10.679 66.784,-10.679 65.527,0 124.143,29.578 163.231,76.11 C 152.693,40.939 130.423,33.515 105.059,33.348 75.375,12.344 39.13,0 0,0" /></g><g
           transform="translate(713.4291,684.9443)"
           id="g28"><path
             id="path30"
             style="fill:#b2f068;fill-opacity:1;fill-rule:nonzero;stroke:none"
             d="m 0,0 c 5.622,-17.539 8.661,-36.234 8.661,-55.64 0,-56.338 -25.588,-106.699 -65.775,-140.1 23.376,0.89 43.615,7.614 53.653,11.567 27.062,35.73 43.12,80.256 43.12,128.533 0,42.898 -12.679,82.834 -34.49,116.269 C 5.943,53.32 7.854,27.471 0,0" /></g><g
           transform="translate(366.9232,686.0336)"
           id="g32"><path
             id="path34"
             style="fill:#ff6961;fill-opacity:1;fill-rule:nonzero;stroke:none"
             d="m 0,0 c 22.709,69.325 85.906,120.312 161.64,125.006 -22.052,13.867 -44.82,19.57 -53.302,21.337 C 26.771,120.362 -33.476,46.601 -39.509,-42.046 -36.446,-37.261 -22.536,-16.667 0,0" /></g><g
           transform="translate(357.9103,629.3048)"
           id="g36"><path
             id="path38"
             style="fill:#45b4e7;fill-opacity:1;fill-rule:nonzero;stroke:none"
             d="M 0,0 C 0,15.129 1.848,29.827 5.325,43.882 -14.267,28.731 -26.886,11.021 -30.94,4.894 -30.977,3.267 -30.998,1.636 -30.998,0 c 0,-90.441 56.345,-167.718 135.845,-198.653 -4.301,4.436 -23.831,25.613 -34.601,54.954 C 27.495,-110.378 0,-58.401 0,0" /></g><g
           transform="translate(488.524,667.0202)"
           id="g40"><path
             id="path42"
             style="fill:#ff6961;fill-opacity:1;fill-rule:nonzero;stroke:none"
             d="m 0,0 h -25.199 l -8.999,-46.381 H -9.895 L -37.798,-177.174 H 4.8 l 28.346,130.793 h 36.45 L 107.994,0 H 43.198 c 0,0 19.511,58.773 87.751,54.493 l 9.801,47.002 C 140.75,101.495 38.398,111.778 0,0" /></g><g
           transform="translate(485.7922,352.2979)"
           id="g44"><path
             id="path46"
             style="fill:#ff6961;fill-opacity:1;fill-rule:nonzero;stroke:none"
             d="m 0,0 c -5.931,0 -11.663,-1.861 -17.265,-5.753 -5.721,-3.722 -9.615,-8.459 -11.736,-13.873 -2.055,-5.244 -1.806,-9.812 0.932,-13.703 1.667,-2.369 5.359,-5.245 10.89,-8.629 v 0 c 4.538,-3.553 7.436,-6.09 8.626,-7.783 2.262,-3.214 2.525,-7.274 0.735,-11.843 -1.789,-4.567 -5.234,-8.628 -10.014,-11.842 -4.781,-3.215 -9.891,-4.907 -14.895,-4.907 -5.004,0 -8.603,1.692 -10.865,4.907 -2.447,3.214 -2.524,7.275 -0.602,12.181 l -8.883,-1.861 c -2.254,-5.752 -1.648,-10.828 1.685,-15.565 3.148,-4.737 8.521,-7.105 15.749,-7.105 7.413,0 14.457,2.368 21.501,7.105 7.045,4.737 11.708,10.489 14.293,17.087 2.585,6.598 2.429,12.351 -0.904,17.088 -2.209,2.877 -6.258,6.26 -12.517,10.151 -3.692,2.877 -6.232,4.907 -7.184,6.26 -1.667,2.369 -1.837,5.245 -0.578,8.459 1.326,3.384 3.75,6.26 7.272,8.629 3.523,2.368 7.137,3.553 10.843,3.552 3.522,0 6.089,-1.014 7.637,-3.214 1.428,-2.03 1.651,-5.245 0.617,-9.305 l 8.036,2.538 0.133,0.338 c 1.723,4.399 1.394,8.29 -0.92,11.843 C 10.085,-1.692 5.745,0 0,0" /></g><g
           transform="translate(557.8217,342.316)"
           id="g48"><path
             id="path50"
             style="fill:#ff6961;fill-opacity:1;fill-rule:nonzero;stroke:none"
             d="M 0,0 2.916,7.444 H -15.06 L -1.539,41.957 H -9.693 L -23.215,7.444 H -41.376 L -44.293,0 h 18.162 l -28.898,-73.765 h 8.154 L -17.977,0 Z" /></g><g
           transform="translate(607.601,351.6209)"
           id="g52"><path
             id="path54"
             style="fill:#ff6961;fill-opacity:1;fill-rule:nonzero;stroke:none"
             d="m 0,0 c -7.731,-0.339 -16.284,-3.722 -26.097,-10.321 -3.02,-2.03 -5.919,-4.229 -8.449,-6.429 l 5.833,14.889 h -8.154 L -68.682,-83.07 h 8.154 l 16.438,41.958 c 4.215,9.813 11.54,18.103 21.922,25.209 7.481,4.906 13.731,7.613 18.987,7.782 z" /></g><g
           transform="translate(600.6136,289.192)"
           id="g56"><path
             id="path58"
             style="fill:#ff6961;fill-opacity:1;fill-rule:nonzero;stroke:none"
             d="m 0,0 c -2.856,6.429 -2.652,14.042 0.661,22.501 4.043,10.321 11.567,19.118 22.386,26.393 10.885,7.444 21.914,10.997 33.219,10.997 9.451,0 16.677,-2.369 21.731,-7.444 z m 90.309,53.124 c -0.172,0.507 -0.595,0.846 -0.953,1.353 -0.952,1.353 -1.97,2.538 -2.804,3.722 -6.377,6.429 -15.31,9.644 -27.171,9.644 -13.714,0 -27.113,-4.399 -40.262,-13.366 C 5.85,45.679 -3.144,35.021 -8.049,22.501 -12.954,9.982 -12.377,-0.846 -6.002,-9.644 c 6.19,-8.797 16.077,-13.365 29.79,-13.365 13.714,0 27.365,4.568 40.448,13.365 2.767,1.861 5.165,3.722 7.628,5.753 l -7.65,2.706 C 63.075,-2.2 61.632,-3.046 60.307,-4.061 49.488,-11.336 38.208,-15.058 26.904,-15.058 c -10.564,0 -18.385,3.215 -23.465,9.644 L 81.94,47.372 Z" /></g><g
           transform="translate(725.4489,274.1344)"
           id="g60"><path
             id="path62"
             style="fill:#ff6961;fill-opacity:1;fill-rule:nonzero;stroke:none"
             d="m 0,0 c -11.305,0 -19.483,3.722 -24.788,10.997 -5.118,7.275 -5.563,16.072 -1.52,26.393 4.109,10.489 11.447,19.287 22.267,26.562 11.07,7.444 22.099,10.997 33.403,10.997 11.305,0 19.735,-3.553 24.788,-10.997 3.809,-5.414 5.183,-11.843 3.815,-19.118 L 52.199,30.115 C 47.866,22.84 41.522,16.58 33.404,10.997 22.585,3.722 11.305,0 0,0 M 70.028,75.626 65.521,64.121 c -0.754,1.861 -1.878,3.722 -3.068,5.414 C 56.329,78.501 46.192,82.9 32.477,82.9 18.764,82.9 5.365,78.501 -7.785,69.535 -21.053,60.737 -30.047,50.079 -35.018,37.39 -39.857,25.039 -39.28,14.212 -32.905,5.414 c 6.19,-8.798 16.076,-13.366 29.79,-13.366 13.714,0 27.365,4.568 40.448,13.366 2.516,1.692 5.098,3.553 7.376,5.583 l -6.495,-16.58 h 8.154 l 31.814,81.209 z" /></g><g
           transform="translate(907.7394,347.3912)"
           id="g64"><path
             id="path66"
             style="fill:#ff6961;fill-opacity:1;fill-rule:nonzero;stroke:none"
             d="M 0,0 C -3.333,4.737 -8.521,7.106 -15.934,7.106 -23.162,7.106 -30.39,4.738 -37.25,0 c -1.947,-1.184 -3.84,-2.707 -5.297,-4.061 -0.515,1.523 -1.282,2.877 -2.116,4.061 -3.333,4.737 -8.521,7.106 -15.934,7.106 -7.042,0 -13.834,-2.199 -20.812,-6.768 l 0.795,2.031 h -8.154 l -31.815,-81.209 h 8.154 l 24.789,63.275 c 2.147,4.06 5.207,7.613 9.418,10.32 4.78,3.215 9.706,4.907 14.709,4.907 5.004,0 8.789,-1.692 11.051,-4.907 2.142,-3.045 2.604,-6.598 1.066,-10.997 L -75.92,-78.84 h 8.154 l 24.06,61.414 c 1.922,4.906 5.181,8.967 10.146,12.181 4.781,3.215 9.707,4.907 14.71,4.907 5.004,0 8.603,-1.692 11.05,-4.907 2.143,-3.045 2.419,-6.598 1.067,-10.997 H -6.918 L -31.442,-78.84 h 8.154 L 1.235,-16.242 C 3.569,-9.813 3.095,-4.399 0,0" /></g><g
           transform="translate(245.0694,351.4692)"
           id="g68"><path
             id="path70"
             style="fill:#ff6961;fill-opacity:1;fill-rule:nonzero;stroke:none"
             d="m 0,0 h -35.811 l 1.691,6.317 c 0.675,2.508 1.775,4.874 3.27,7.033 1.481,2.138 3.237,4.002 5.221,5.545 1.935,1.549 4.145,2.794 6.543,3.683 2.359,0.9 4.866,1.357 7.436,1.357 H 3.205 L 8.013,41.887 H -5.866 c -4.968,0 -9.979,-0.962 -14.904,-2.857 -4.985,-1.944 -9.634,-4.579 -13.81,-7.834 -4.177,-3.254 -7.89,-7.17 -11.032,-11.634 -3.084,-4.423 -5.327,-9.198 -6.662,-14.184 L -53.715,0 h -10.534 l -4.812,-17.955 h 10.534 l -16.985,-63.386 h 17.907 l 16.982,63.386 h 17.963 z" /></g><g
           transform="translate(284.0898,351.4692)"
           id="g72"><path
             id="path74"
             style="fill:#ff6961;fill-opacity:1;fill-rule:nonzero;stroke:none"
             d="m 0,0 -12.229,-45.635 c -0.649,-2.424 -1.752,-4.826 -3.28,-7.138 -1.528,-2.268 -3.324,-4.325 -5.349,-6.125 -2.054,-1.778 -4.315,-3.248 -6.731,-4.376 -2.493,-1.139 -5.007,-1.713 -7.49,-1.713 -2.486,0 -4.768,0.417 -6.782,1.244 -2.127,0.908 -3.824,2.254 -5.08,4.011 -1.252,1.752 -2.036,3.933 -2.338,6.473 -0.29,2.464 0,5.345 0.865,8.56 l 10.473,39.093 -22.893,-18.91 -5.659,-21.119 c -1.568,-5.853 -2.036,-11.151 -1.386,-15.741 0.632,-4.597 2.134,-8.506 4.467,-11.623 2.355,-3.146 5.476,-5.607 9.282,-7.312 3.897,-1.746 8.361,-2.631 13.267,-2.631 2.235,0 4.659,0.475 7.203,1.408 2.449,0.896 5.084,1.88 8.045,2.997 l 5.309,2.007 -3.16,-4.714 c -1.387,-2.064 -2.999,-3.988 -4.787,-5.711 -1.825,-1.778 -3.756,-3.277 -5.889,-4.576 -2.087,-1.284 -4.315,-2.304 -6.605,-3.023 -2.286,-0.755 -4.623,-1.139 -6.92,-1.139 l -3.908,0.141 -4.873,-18.183 2.021,-0.127 c 5.675,0 11.419,1.106 17.043,3.288 5.695,2.22 11.003,5.254 15.779,9.02 4.794,3.738 9.039,8.219 12.628,13.321 3.541,5.055 6.147,10.535 7.74,16.282 L 18.042,0 Z" /></g><g
           transform="translate(340.8004,333.3546)"
           id="g76"><path
             id="path78"
             style="fill:#ff6961;fill-opacity:1;fill-rule:nonzero;stroke:none"
             d="M 0,0 H 1.912 C 6.651,5.356 14.134,13.931 22.534,17.951 H 5.784 c -4.518,0 -9.195,-0.831 -13.901,-2.471 -4.714,-1.665 -9.217,-4.053 -13.383,-7.09 l -1.818,-1.328 -4.885,11.053 h -2.649 l -21.797,-81.342 h 17.908 l 12.181,45.471 c 0.668,2.486 1.753,4.83 3.223,6.975 1.531,2.185 3.302,4.071 5.265,5.625 2.075,1.632 4.26,2.866 6.68,3.766 2.12,0.798 4.272,1.259 6.409,1.364 C -0.653,-0.007 -0.327,0 0,0" /></g><g
           transform="translate(390.6814,336.2648)"
           id="g80"><path
             id="path82"
             style="fill:#ff6961;fill-opacity:1;fill-rule:nonzero;stroke:none"
             d="m 0,0 c 1.191,-0.138 2.297,-0.418 3.288,-0.835 l 2.515,-1.059 -38.327,-37.503 -0.838,2.921 c -0.265,0.914 -0.407,1.919 -0.424,2.986 -0.011,0.999 0.028,2.025 0.126,3.165 0.099,1.201 0.302,2.362 0.465,3.24 0.225,1.202 0.413,2.079 0.62,2.845 0.984,3.676 2.493,7.069 4.478,10.088 1.978,2.987 4.286,5.567 6.862,7.664 2.602,2.119 5.491,3.777 8.578,4.924 3.107,1.154 6.282,1.738 9.435,1.738 C -2.094,0.174 -1.009,0.116 0,0 m 26.976,8.313 c -1.926,2.178 -4.126,4.017 -6.546,5.469 -2.449,1.502 -5.2,2.663 -8.19,3.458 -3.03,0.806 -6.256,1.212 -9.594,1.212 -5.73,0 -11.474,-1.056 -17.081,-3.135 -0.936,-0.345 -1.865,-0.719 -2.783,-1.114 -1.462,-0.632 -2.903,-1.325 -4.315,-2.083 -3.022,-1.612 -5.918,-3.502 -8.668,-5.657 -3.429,-2.689 -6.597,-5.832 -9.457,-9.373 -0.947,-1.165 -1.858,-2.377 -2.732,-3.629 -0.185,-0.265 -0.371,-0.534 -0.552,-0.802 -3.629,-5.36 -6.35,-11.362 -8.089,-17.839 -1.687,-6.299 -2.151,-12.127 -1.382,-17.323 0.773,-5.244 2.471,-9.613 5.192,-13.365 2.697,-3.716 6.271,-6.648 10.629,-8.713 4.395,-2.093 9.497,-3.157 15.172,-3.157 3.331,0.001 6.796,0.407 10.306,1.202 3.367,0.765 6.8,1.937 10.2,3.483 3.389,1.564 6.677,3.458 9.761,5.628 2.715,1.924 5.28,4.064 7.642,6.376 l -8.248,11.006 c -6.854,-5.947 -19.707,-12.222 -29.327,-8.825 l -2.86,1.012 54.99,50.077 c -1.074,2.21 -2.442,4.253 -4.068,6.092" /></g></g></g></g></svg>